<svg width="60" height="60" viewBox="0 0 60 60" fill="none" xmlns="http://www.w3.org/2000/svg">
<g filter="url(#filter0_d_2_139)">
<path d="M28 55C42.9117 55 55 42.9117 55 28C55 13.0883 42.9117 1 28 1C13.0883 1 1 13.0883 1 28C1 42.9117 13.0883 55 28 55Z" fill="#F93535"/>
<path d="M28 41C35.1797 41 41 35.1797 41 28C41 20.8203 35.1797 15 28 15C20.8203 15 15 20.8203 15 28V41H28Z" fill="white"/>
<path d="M34 26H22V28H34V26Z" fill="#F93535"/>
<path d="M27 31H22V33H27V31Z" fill="#F93535"/>
</g>
<defs>
<filter id="filter0_d_2_139" x="0" y="0" width="60" height="60" filterUnits="userSpaceOnUse" color-interpolation-filters="sRGB">
<feFlood flood-opacity="0" result="BackgroundImageFix"/>
<feColorMatrix in="SourceAlpha" type="matrix" values="0 0 0 0 0 0 0 0 0 0 0 0 0 0 0 0 0 0 127 0" result="hardAlpha"/>
<feOffset dx="2" dy="2"/>
<feGaussianBlur stdDeviation="1.5"/>
<feComposite in2="hardAlpha" operator="out"/>
<feColorMatrix type="matrix" values="0 0 0 0 0 0 0 0 0 0 0 0 0 0 0 0 0 0 0.25 0"/>
<feBlend mode="normal" in2="BackgroundImageFix" result="effect1_dropShadow_2_139"/>
<feBlend mode="normal" in="SourceGraphic" in2="effect1_dropShadow_2_139" result="shape"/>
</filter>
</defs>
</svg>
