<svg width="86" height="64" viewBox="0 0 86 64" fill="none" xmlns="http://www.w3.org/2000/svg">
<g clip-path="url(#clip0_1_4)">
<path d="M81.71 26L38.9095 1.4C33.123 -1.9 28.5336 0.800001 28.5336 7.5V37.3C28.5336 37.4 28.5336 37.5 28.6334 37.6H28.7332C29.232 35.6 29.6311 33.8 30.1299 31.8L32.1253 23.6H36.5151L31.1276 41.6H28.5336V56.5C28.5336 63.2 33.2227 65.9 38.9095 62.6L81.71 38C87.4965 34.7 87.4965 29.3 81.71 26ZM49.9837 41.6H38.3109V23.6H49.6844V27.2H42.6009V30.5H48.587V34.1H42.6009V38H49.884V41.6H49.9837Z" fill="white"/>
<path d="M4.29002 23.6H0V41.6H11.2738V38H4.29002V23.6Z" fill="white"/>
<path d="M18.6566 23.6H14.3666V41.6H18.6566V23.6Z" fill="white"/>
<path d="M27.1369 31.8L25.0418 23.6H20.4524L25.8399 41.6H28.4339V37.3C28.0348 35.4 27.6357 33.6 27.1369 31.8Z" fill="white"/>
</g>
<defs>
<clipPath id="clip0_1_4">
<rect width="86" height="64" fill="white"/>
</clipPath>
</defs>
</svg>
